<?xml version="1.0" standalone="no"?>
<!DOCTYPE svg PUBLIC "-//W3C//DTD SVG 20010904//EN"
 "http://www.w3.org/TR/2001/REC-SVG-20010904/DTD/svg10.dtd">
<svg version="1.0" xmlns="http://www.w3.org/2000/svg"
 width="500.000000pt" height="500.000000pt" viewBox="0 0 500.000000 500.000000"
 preserveAspectRatio="xMidYMid meet">
<metadata>
Created by potrace 1.14, written by Peter Selinger 2001-2017
</metadata>
<g transform="translate(0.000000,500.000000) scale(0.100000,-0.100000)"
fill="#000000" stroke="none">
<path d="M2907 4164 c-2 -2 -28 -6 -58 -8 -63 -5 -114 -13 -184 -27 -27 -6
-61 -13 -75 -15 -130 -25 -465 -153 -560 -214 -8 -5 -30 -16 -48 -25 -62 -28
-287 -183 -387 -268 -172 -145 -292 -272 -431 -454 -107 -141 -207 -318 -273
-483 -51 -127 -54 -134 -56 -140 -5 -15 -29 -96 -31 -105 -8 -28 -16 -62 -19
-80 -3 -11 -9 -38 -14 -60 -25 -105 -35 -383 -19 -520 31 -252 152 -504 327
-682 123 -126 242 -205 431 -287 43 -18 193 -62 240 -70 19 -3 46 -8 60 -11
153 -31 476 -21 660 20 14 3 37 7 51 10 111 20 401 123 519 184 81 41 186 101
233 133 32 21 62 38 67 38 5 0 10 4 12 8 2 5 25 24 53 42 70 48 228 183 305
261 101 102 157 166 239 274 17 22 34 45 39 50 9 13 71 107 104 160 72 116
190 369 203 436 2 10 7 24 10 29 3 5 8 18 10 27 2 10 16 64 30 120 34 139 37
162 40 358 2 131 -1 191 -15 260 -28 146 -84 325 -101 325 -5 0 -9 7 -9 16 0
20 -59 121 -112 194 -44 60 -150 167 -212 215 -22 17 -52 40 -67 53 -40 33
-241 134 -319 160 -69 23 -170 48 -233 57 -20 3 -54 8 -74 11 -45 7 -330 14
-336 8z"/>
</g>
</svg>
