<?xml version="1.0" standalone="no"?>
<!DOCTYPE svg PUBLIC "-//W3C//DTD SVG 20010904//EN"
 "http://www.w3.org/TR/2001/REC-SVG-20010904/DTD/svg10.dtd">
<svg version="1.0" xmlns="http://www.w3.org/2000/svg"
 width="500.000000pt" height="500.000000pt" viewBox="0 0 500.000000 500.000000"
 preserveAspectRatio="xMidYMid meet">
<metadata>
Created by potrace 1.14, written by Peter Selinger 2001-2017
</metadata>
<g transform="translate(0.000000,500.000000) scale(0.100000,-0.100000)"
fill="#000000" stroke="none">
<path d="M2475 4162 c-21 -5 -100 -57 -125 -82 -27 -29 -184 -156 -280 -229
-52 -39 -99 -74 -105 -79 -95 -72 -347 -201 -445 -227 -3 -1 -12 -4 -20 -8
-30 -12 -156 -46 -192 -51 -97 -15 -114 -18 -123 -26 -13 -11 -13 -448 -1
-469 7 -10 5 -12 -4 -6 -9 5 -11 4 -6 -3 12 -20 32 -13 65 23 17 19 29 35 26
35 -3 0 16 22 42 48 26 26 50 55 52 63 7 29 7 95 0 115 -4 11 -4 25 -1 31 7
10 60 28 74 25 4 -1 27 7 52 18 45 19 68 13 46 -12 -36 -44 -50 -62 -50 -67 0
-3 -10 -17 -22 -31 -13 -14 -36 -43 -52 -65 -17 -22 -32 -42 -35 -45 -14 -12
-71 -90 -71 -96 0 -4 -11 -17 -25 -30 -14 -13 -25 -28 -25 -33 0 -6 -8 -15
-17 -20 -10 -6 -15 -11 -11 -11 7 0 -11 -25 -40 -55 -6 -8 -12 -18 -12 -23 0
-6 -3 -12 -8 -14 -4 -1 -17 -16 -29 -31 -12 -16 -24 -23 -28 -17 -5 8 -9 360
-5 395 2 16 -1 139 -4 160 -3 18 -13 19 -125 20 -68 0 -126 -2 -130 -5 -5 -3
-8 -144 -7 -315 l1 -310 162 -1 c88 -1 168 -4 177 -7 12 -5 14 -12 7 -29 -9
-24 -6 -97 5 -107 7 -8 13 -8 74 -10 50 -1 67 -14 30 -24 -11 -3 -20 -2 -20 1
0 7 -406 4 -426 -3 -16 -5 -16 -673 0 -678 6 -1 65 -2 131 -2 l120 1 0 132 c0
73 4 132 8 132 5 0 5 5 1 11 -15 25 -8 95 11 122 35 49 109 141 127 158 10 9
15 19 12 22 -3 3 3 10 13 15 16 9 23 2 53 -56 19 -37 38 -69 41 -72 3 -3 19
-27 35 -55 16 -27 34 -57 39 -67 62 -106 82 -155 79 -193 -16 -164 -9 -212 43
-304 21 -36 39 -68 41 -71 1 -3 -12 -7 -29 -8 -17 -1 -44 -9 -60 -18 -25 -13
-28 -17 -18 -35 7 -14 16 -18 27 -13 32 13 72 16 72 5 0 -20 -5 -25 -25 -29
-34 -5 -105 -43 -99 -53 3 -5 0 -9 -6 -9 -7 0 -9 -9 -5 -22 5 -18 4 -20 -4 -8
-6 8 -11 11 -11 6 0 -5 -7 -3 -15 4 -8 7 -15 8 -15 3 0 -12 -60 -11 -78 0 -23
15 -7 30 31 30 20 0 40 -3 44 -6 3 -4 13 -1 21 6 13 10 14 9 7 -3 -6 -12 -5
-12 5 -3 17 16 15 91 -4 112 -12 13 -13 20 -4 29 9 9 9 12 1 12 -10 0 -24 26
-28 50 0 3 -6 15 -13 28 -7 12 -11 22 -8 22 3 0 -1 11 -7 24 -7 13 -13 49 -12
80 0 31 -4 56 -8 56 -5 0 -6 4 -3 9 7 10 7 48 3 239 -4 162 -10 177 -65 166
-18 -4 -31 -9 -28 -11 2 -3 -4 -13 -15 -24 -11 -11 -17 -24 -14 -29 4 -6 1
-10 -4 -10 -6 0 -11 -5 -11 -11 0 -5 6 -7 13 -4 6 4 4 0 -5 -8 -21 -17 -24
-37 -5 -37 8 0 7 -3 -3 -10 -13 -8 -16 -21 -23 -82 0 -10 -4 -18 -8 -18 -4 0
-5 -13 -4 -30 1 -16 0 -30 -4 -30 -4 0 -6 -51 -5 -112 1 -87 6 -127 23 -173
31 -88 32 -95 13 -95 -10 0 -28 -7 -40 -16 -20 -14 -22 -14 -22 0 0 16 -49 24
-51 9 -4 -22 -5 -200 -2 -209 2 -6 16 -11 31 -10 26 1 27 2 30 73 3 75 11 90
53 96 15 3 26 13 30 28 4 13 7 18 8 11 1 -7 6 -10 13 -6 8 5 9 2 4 -11 -39
-102 4 -195 90 -195 31 0 67 -18 59 -30 -3 -4 8 -22 25 -38 16 -17 30 -34 30
-37 0 -15 253 -255 269 -255 5 0 11 -4 13 -8 10 -25 348 -262 348 -244 0 4 4
2 8 -4 11 -16 227 -118 246 -115 3 0 21 -6 39 -14 21 -9 61 -13 113 -11 79 3
96 6 163 27 47 15 204 90 212 102 3 5 8 7 10 6 6 -4 103 54 107 63 2 4 8 8 14
8 13 0 250 176 300 223 10 9 21 17 24 17 8 0 214 209 244 248 14 18 24 40 22
48 -2 11 1 14 10 9 10 -6 10 -5 1 5 -6 7 -9 19 -6 28 4 8 2 13 -3 10 -10 -7
-10 54 1 71 3 6 1 11 -5 11 -6 0 -9 4 -5 9 10 18 12 71 3 77 -6 4 -5 10 3 15
10 6 5 9 -16 9 -16 0 -35 -4 -40 -8 -6 -4 -12 -45 -13 -92 -4 -95 -8 -109 -26
-84 -7 9 -17 14 -22 11 -22 -13 -38 13 -38 62 -1 50 2 55 36 52 12 -2 16 6 16
28 -1 16 -4 30 -7 29 -39 -4 -47 3 -45 42 1 22 8 48 16 58 19 21 38 77 38 110
0 23 2 24 48 19 26 -3 55 -8 65 -11 9 -3 23 -8 31 -10 11 -4 11 -13 1 -53 -7
-27 -9 -55 -4 -64 4 -8 4 -21 -1 -29 -5 -8 -6 -19 -2 -24 3 -6 7 -61 8 -123 2
-127 9 -143 60 -143 38 0 43 13 19 47 -17 24 -17 93 0 105 6 5 6 8 -2 8 -13 0
-12 18 1 39 6 10 5 12 -2 7 -13 -8 -6 20 9 40 5 6 6 14 2 18 -4 4 1 4 12 0 15
-6 17 -4 11 12 -6 17 -5 16 13 -3 16 -17 27 -20 43 -14 32 11 34 49 3 63 -13
6 -22 15 -19 20 3 4 9 6 14 3 12 -7 17 15 14 57 l-3 36 82 27 c45 15 89 33 98
41 8 8 19 14 23 14 4 0 29 21 56 48 94 93 142 221 156 412 4 41 7 89 8 105 5
62 -2 65 -138 65 l-123 0 -2 -82 c-5 -246 -52 -348 -175 -383 -105 -30 -228 1
-274 69 -21 31 -36 77 -33 101 1 6 3 213 4 460 3 427 0 484 -24 469 -10 -6
-11 -1 -15 81 -4 85 -2 89 42 70 21 -8 50 -17 65 -20 79 -14 79 -13 80 -132 1
-210 3 -243 11 -243 5 0 7 4 4 8 -5 9 23 71 41 90 9 9 29 12 57 10 71 -7 71
-7 71 210 0 212 4 199 -65 208 -49 6 -96 16 -143 29 -27 8 -52 14 -55 13 -4
-1 -14 2 -22 5 -8 3 -37 13 -63 21 -125 41 -264 113 -416 215 -62 42 -122 81
-132 87 -10 6 -16 14 -12 17 3 4 1 7 -6 7 -6 0 -17 5 -24 10 -7 6 -24 20 -38
33 -15 12 -41 33 -59 47 -17 14 -44 35 -58 48 -156 136 -211 168 -267 154z
m75 -232 c73 -63 92 -80 163 -137 39 -32 78 -64 86 -71 7 -7 41 -31 75 -54 33
-23 63 -44 66 -47 6 -7 55 -40 85 -57 11 -6 49 -28 83 -48 85 -48 208 -106
226 -106 8 0 18 -5 21 -11 4 -6 13 -8 21 -5 8 3 14 1 14 -5 0 -6 4 -8 9 -4 5
3 12 1 16 -5 8 -12 12 -12 -115 -14 l-105 -2 -5 -31 -5 -31 -110 63 c-60 35
-115 68 -122 74 -7 6 -15 11 -19 11 -8 0 -232 157 -250 175 -6 6 -31 27 -54
46 -23 18 -53 44 -65 55 -41 40 -62 47 -90 27 -13 -10 -25 -21 -25 -25 0 -5
-7 -8 -17 -8 -9 0 -14 -3 -10 -6 3 -4 -26 -32 -66 -62 -40 -31 -78 -62 -85
-69 -7 -7 -17 -13 -21 -13 -4 0 -16 -8 -27 -18 -47 -44 -254 -172 -340 -211
-23 -11 -45 -24 -48 -30 -4 -6 -12 -11 -17 -11 -6 0 -1 14 11 30 12 17 18 31
13 31 -4 1 -61 2 -125 3 -64 1 -120 5 -125 10 -4 5 -3 6 4 3 6 -4 13 -2 15 3
2 6 10 12 18 14 34 5 97 31 156 62 34 18 65 30 68 27 3 -4 6 -1 6 5 0 7 7 12
15 12 8 0 15 5 15 10 0 6 6 10 14 10 18 0 286 179 286 191 0 5 6 9 13 9 7 0
19 8 28 18 8 9 30 28 49 42 18 14 44 34 56 45 19 18 51 45 134 114 33 27 39
26 80 -9z m-421 -681 c-11 -11 -23 -19 -25 -16 -6 6 25 37 37 37 5 0 0 -9 -12
-21z m-85 -81 c-5 -7 -2 -9 8 -5 13 5 14 0 6 -31 -34 -136 -22 -231 43 -342
30 -52 48 -59 146 -60 79 0 92 -2 96 -17 5 -24 -21 -75 -35 -67 -5 4 -14 0
-19 -7 -5 -9 -9 -10 -9 -2 0 18 -38 3 -55 -23 -8 -13 -13 -33 -12 -46 4 -25
28 -40 144 -89 81 -33 117 -63 70 -58 -12 2 -32 -3 -45 -10 -12 -6 -36 -10
-52 -7 -17 2 -32 0 -36 -5 -3 -5 -15 -7 -28 -3 -70 17 -117 9 -143 -25 -18
-24 -16 -27 25 -46 20 -10 74 -35 120 -57 49 -23 91 -37 101 -33 10 3 33 19
50 35 17 17 35 30 41 30 5 0 10 4 10 9 0 6 13 18 29 27 16 10 32 26 34 36 7
26 36 22 90 -11 45 -30 95 -105 77 -116 -5 -3 -7 -11 -4 -19 12 -32 -30 -92
-86 -121 -36 -19 -161 -26 -226 -13 -46 9 -137 53 -192 93 -31 22 -56 33 -66
29 -9 -3 -16 -9 -16 -13 0 -3 -14 -21 -30 -39 -16 -19 -39 -47 -52 -63 -25
-32 -43 -37 -52 -14 -11 30 -71 104 -84 105 -7 0 -11 4 -8 9 4 5 3 11 -1 13
-12 5 -73 86 -73 97 0 5 -4 11 -8 13 -12 5 -72 95 -72 108 0 6 -4 9 -8 6 -5
-3 -9 1 -9 9 0 10 4 12 12 5 14 -11 45 -3 45 11 0 5 -3 9 -7 10 -5 0 -16 2
-25 4 -9 2 -27 -5 -39 -16 -12 -10 -27 -19 -34 -19 -7 0 -17 -15 -22 -32 l-10
-33 -13 28 c-7 15 -17 27 -22 27 -4 0 -8 7 -8 15 0 8 -4 15 -9 15 -5 0 -11 8
-15 18 -9 26 -46 87 -51 85 -17 -9 -195 -1 -195 8 0 5 5 7 10 4 6 -3 10 -1 10
5 0 6 5 8 10 5 9 -6 16 44 10 70 -1 6 -3 24 -4 40 -1 30 -1 30 59 33 68 3 94
10 79 20 -5 4 -19 23 -31 43 -15 27 -18 40 -10 54 18 32 50 64 59 59 4 -3 8 0
8 6 0 6 5 8 12 4 8 -5 9 -2 5 9 -3 9 -1 19 5 23 6 4 8 3 5 -3 -4 -6 0 -14 9
-17 8 -3 12 -2 9 4 -3 6 -1 10 4 10 6 0 11 5 11 11 0 5 -4 8 -9 4 -5 -3 -13 0
-17 6 -5 8 -3 9 5 5 8 -5 11 -3 9 5 -4 19 48 86 67 86 8 0 15 -4 15 -9 0 -5 5
-6 12 -2 7 4 8 3 4 -4 -5 -9 -13 -9 -29 -1 -21 10 -21 9 -3 -5 14 -11 24 -13
37 -5 14 7 19 6 20 -3 0 -10 2 -10 6 0 2 6 9 10 14 7 5 -4 24 1 43 10 21 10
61 17 101 17 36 0 65 5 65 10 0 5 4 7 9 4 5 -4 24 12 41 34 17 22 38 40 45 40
7 0 15 7 19 15 3 8 8 15 11 15 4 0 3 -5 -1 -12z m880 -18 c6 0 13 -10 13 -22
1 -13 7 -24 13 -26 5 -2 8 -8 5 -13 -3 -5 -1 -18 5 -29 6 -12 13 -31 16 -43 4
-24 32 -49 46 -41 4 3 11 -2 14 -10 3 -9 10 -14 14 -11 4 3 7 -36 5 -85 -1
-50 1 -90 5 -90 4 0 22 13 39 29 16 15 33 26 36 23 3 -3 5 0 5 7 0 7 4 10 9 7
5 -3 12 1 15 10 12 32 26 0 26 -61 0 -38 4 -65 11 -67 8 -3 8 -11 -2 -28 -8
-14 -16 -27 -20 -30 -3 -3 -16 -23 -29 -45 -41 -69 -154 -240 -163 -246 -5 -3
-8 -10 -7 -15 1 -5 -3 -10 -8 -12 -5 -1 -14 15 -20 37 -15 48 -77 134 -113
155 -15 9 -39 17 -53 18 -14 1 -23 4 -21 6 2 2 6 3 9 3 12 -2 66 30 66 39 0 6
4 10 10 10 14 0 70 57 63 64 -4 3 0 6 7 6 9 0 8 5 -4 19 -19 20 -66 33 -133
35 -49 2 -58 8 -48 33 5 10 10 29 11 42 2 13 7 27 11 30 30 23 48 161 22 176
-6 4 5 22 28 45 21 21 51 52 68 70 16 17 31 26 33 21 2 -6 9 -11 16 -11z
m-184 -69 c0 -5 10 -12 23 -16 19 -6 20 -8 4 -12 -18 -5 -47 12 -47 28 0 5 5
9 10 9 6 0 10 -4 10 -9z m565 -361 c-3 -5 -2 -10 4 -10 5 0 12 4 15 9 3 4 29
8 58 7 44 -1 53 -4 52 -19 -1 -9 -2 -26 -3 -38 0 -12 -10 -23 -21 -26 -11 -3
-20 -9 -20 -12 0 -16 -61 3 -75 22 -11 16 -12 24 -2 36 9 11 9 13 0 8 -14 -9
-27 8 -18 23 3 6 8 10 11 10 3 0 2 -4 -1 -10z m119 -133 c3 3 6 1 6 -6 0 -7 5
-9 13 -5 7 4 9 3 4 -2 -10 -11 -207 -14 -207 -4 0 4 7 10 15 14 8 3 15 1 15
-5 0 -6 5 -7 11 -3 16 10 89 11 89 1 0 -5 5 -5 10 -2 6 4 7 11 4 17 -4 6 0 6
13 -1 11 -6 23 -7 27 -4z m-197 -23 c-3 -4 -14 -3 -24 0 -15 6 -15 8 -3 16 16
10 39 -4 27 -16z m-41 -66 c-1 -7 -6 -19 -10 -27 -6 -9 -5 -12 2 -7 8 4 11
-12 11 -53 0 -33 2 -64 5 -69 2 -4 0 -14 -6 -22 -8 -12 -9 -12 -4 3 3 11 0 17
-10 17 -8 0 -13 4 -10 8 3 5 -3 18 -14 30 -12 13 -16 23 -10 27 6 4 8 10 5 15
-3 5 1 25 9 44 8 19 12 37 8 40 -3 3 2 6 10 6 9 0 15 -6 14 -12z m-207 -377
c-22 -77 -82 -170 -112 -172 -7 0 -20 -2 -31 -4 -14 -3 -11 5 15 33 19 20 39
42 46 49 16 18 66 124 70 148 2 11 6 27 10 35 13 29 15 -43 2 -89z m-759 -226
c76 -28 163 -42 261 -43 52 -1 96 -1 99 -2 7 0 -64 -69 -73 -70 -4 0 -17 -9
-29 -20 -12 -10 -25 -17 -30 -14 -4 3 -8 1 -8 -5 0 -5 -8 -8 -17 -6 -10 2 -28
4 -40 4 -12 1 -28 8 -37 16 -8 8 -17 15 -21 15 -4 0 -13 6 -20 13 -8 6 -26 21
-41 32 -14 11 -38 31 -52 43 -15 13 -38 32 -52 43 -21 16 -22 18 -5 14 11 -2
40 -11 65 -20z m600 -240 c0 -15 -6 -25 -14 -25 -8 0 -16 -13 -18 -30 -4 -24
-1 -30 14 -30 16 0 18 -7 16 -40 -2 -37 -4 -41 -27 -38 -25 3 -26 6 -27 63 0
68 -8 87 -29 78 -8 -3 -15 -1 -15 3 0 14 59 37 75 30 8 -3 15 -1 15 4 0 6 2
10 5 10 3 0 5 -11 5 -25z m-543 -45 c-3 -11 -2 -22 1 -24 4 -2 6 -24 5 -48 0
-23 -2 -55 -2 -70 -1 -31 -22 -37 -43 -14 -9 10 -17 10 -30 3 -42 -27 -91 39
-66 88 15 28 28 34 58 29 20 -4 30 1 48 25 26 36 37 40 29 11z m251 -66 c-3
-78 -5 -88 -24 -95 -21 -7 -22 -5 -22 87 -1 93 -1 94 24 94 25 0 25 0 22 -86z
m-117 38 c3 -98 -7 -132 -36 -128 -24 4 -28 13 -27 73 0 93 -1 90 32 91 28 1
30 -2 31 -36z m283 -44 c-2 -39 -8 -76 -13 -81 -5 -5 -23 -4 -45 4 -33 12 -36
17 -36 50 0 40 29 72 56 62 8 -3 15 0 15 6 1 6 3 16 4 21 1 6 3 13 4 16 0 3 5
3 10 0 5 -3 7 -38 5 -78z m280 15 c20 -57 20 -73 2 -73 -8 0 -16 -6 -19 -13
-6 -17 -56 -20 -62 -4 -10 25 -12 74 -4 94 6 15 14 20 28 16 15 -4 21 -1 21
11 0 32 18 15 34 -31z m-1596 25 c20 -20 14 -28 -23 -28 -19 0 -35 4 -35 8 0
12 22 32 35 32 6 0 16 -5 23 -12z m1672 -1 c0 6 8 10 18 8 10 -1 16 -10 14
-21 -7 -46 -13 -64 -23 -64 -6 0 -9 7 -5 15 3 8 1 15 -5 15 -6 0 -8 4 -4 9 3
5 1 12 -5 16 -5 3 -10 14 -10 23 0 15 2 15 10 2 5 -8 10 -10 10 -3z m330 -58
c3 -35 10 -73 16 -83 12 -21 -7 -42 -145 -164 -36 -31 -76 -67 -88 -79 -13
-12 -23 -19 -23 -15 0 4 -4 2 -8 -4 -23 -36 -275 -205 -382 -257 -14 -6 -27
-14 -30 -17 -7 -9 -104 -45 -112 -42 -5 1 -8 -2 -8 -6 0 -9 -10 -10 -90 -15
-30 -1 -64 0 -75 4 -11 4 -29 11 -40 15 -11 4 -29 9 -40 11 -10 2 -22 7 -25
11 -3 4 -38 23 -77 42 -40 19 -73 38 -73 43 0 4 -5 7 -10 7 -6 0 -23 8 -38 19
-15 10 -60 40 -101 67 -41 27 -84 57 -95 66 -34 28 -118 98 -151 126 -63 53
-142 131 -138 136 2 2 -2 3 -9 3 -22 -3 -20 18 2 21 22 4 22 4 25 82 2 30 3
60 4 66 0 5 56 -44 124 -110 68 -67 134 -130 147 -141 87 -70 232 -175 240
-175 5 0 10 -5 10 -11 0 -5 5 -7 10 -4 6 3 10 2 10 -3 0 -5 14 -15 30 -22 17
-7 30 -17 30 -22 0 -5 4 -7 9 -3 5 3 12 1 16 -5 6 -9 64 -39 90 -46 6 -1 26
-9 45 -17 56 -24 131 -15 216 24 165 77 359 220 556 410 37 36 70 63 73 61 3
-3 5 2 5 11 0 10 3 17 8 17 4 0 17 15 30 34 36 53 56 42 62 -35z m-1400 41
c10 -20 9 -21 -29 -19 -35 3 -38 5 -30 21 13 24 46 23 59 -2z m90 -54 c0 -41
-2 -44 -22 -40 -13 3 -28 6 -35 8 -7 1 -16 6 -20 10 -4 4 -3 7 2 6 6 -1 20 -2
32 -1 19 1 22 6 19 31 -2 20 1 30 10 30 10 0 14 -13 14 -44z m-467 -10 c7 -17
-11 -36 -34 -36 -22 0 -31 13 -23 34 8 20 50 21 57 2z"/>
<path d="M1575 2991 c-3 -5 -2 -12 3 -15 5 -3 9 1 9 9 0 17 -3 19 -12 6z"/>
<path d="M3996 3358 c-11 -6 -13 -68 -13 -317 l0 -309 129 0 c123 1 128 1 129
22 3 99 1 225 -5 234 -4 7 -4 17 -1 23 11 17 13 73 3 92 -5 10 -5 17 1 17 5 0
6 14 1 35 -4 19 -5 35 -1 35 8 0 6 158 -2 167 -10 9 -224 10 -241 1z"/>
<path d="M3554 1730 c-30 -12 -36 -24 -21 -44 18 -25 50 -26 66 -4 12 17 11
22 -5 38 -14 13 -25 16 -40 10z"/>
<path d="M3900 1674 c0 -23 -23 -48 -33 -37 -4 3 -7 -5 -7 -20 0 -14 7 -30 16
-35 13 -7 17 -25 19 -70 1 -76 21 -102 75 -102 37 0 51 13 43 38 -3 6 -16 12
-29 12 -13 0 -25 6 -25 13 -10 96 -6 113 26 112 13 0 21 8 23 23 4 23 22 31
22 9 0 -7 16 -52 35 -100 19 -48 35 -95 35 -106 0 -17 -20 -33 -44 -35 -15 -2
-26 -44 -12 -49 22 -9 64 5 85 27 23 24 114 273 103 280 -4 2 -18 3 -31 2 -21
-1 -27 -11 -46 -76 l-22 -74 -25 74 -25 75 -64 5 c-41 3 -64 10 -65 18 -1 6
-2 19 -3 27 -1 9 -10 14 -26 13 -18 -2 -25 -8 -25 -24z"/>
<path d="M887 1620 c-37 -29 -52 -83 -38 -131 24 -80 115 -107 172 -50 27 28
31 40 31 91 0 44 -3 53 -31 81 -36 36 -95 40 -134 9z m92 -44 c18 -21 10 -97
-11 -110 -29 -18 -53 4 -56 55 -3 32 1 47 14 56 23 17 39 16 53 -1z"/>
<path d="M3768 1630 c-1 -5 -2 -57 0 -115 l3 -105 30 0 c16 0 29 6 30 13 6
111 2 207 -9 212 -22 8 -50 6 -54 -5z"/>
</g>
</svg>
