<?xml version="1.0" standalone="no"?>
<!DOCTYPE svg PUBLIC "-//W3C//DTD SVG 20010904//EN"
 "http://www.w3.org/TR/2001/REC-SVG-20010904/DTD/svg10.dtd">
<svg version="1.0" xmlns="http://www.w3.org/2000/svg"
 width="500.000000pt" height="500.000000pt" viewBox="0 0 500.000000 500.000000"
 preserveAspectRatio="xMidYMid meet">
<metadata>
Created by potrace 1.14, written by Peter Selinger 2001-2017
</metadata>
<g transform="translate(0.000000,500.000000) scale(0.100000,-0.100000)"
fill="#000000" stroke="none">
<path d="M3008 4604 c-4 -5 -31 -9 -62 -9 -31 0 -56 -3 -56 -7 0 -4 -18 -6
-40 -5 -22 2 -41 0 -42 -4 -2 -4 -25 -9 -53 -12 -75 -9 -108 -17 -124 -30 -12
-10 -13 -9 -7 1 7 11 4 12 -11 3 -19 -10 -64 -21 -90 -23 -7 -1 -13 -5 -13 -9
0 -5 -7 -6 -15 -3 -8 4 -15 1 -15 -5 0 -6 -7 -8 -15 -5 -8 4 -15 2 -15 -4 0
-6 -8 -9 -17 -7 -10 1 -27 -2 -38 -8 -11 -6 -24 -12 -30 -13 -5 -1 -23 -8 -40
-15 -16 -7 -33 -12 -37 -11 -5 1 -8 -2 -8 -8 0 -5 -6 -7 -14 -4 -7 3 -21 -2
-30 -11 -9 -9 -16 -13 -16 -9 0 3 -7 1 -15 -6 -8 -7 -15 -9 -15 -4 0 4 -12 -3
-27 -17 -14 -13 -23 -18 -19 -11 4 6 3 12 -2 12 -6 0 -12 -7 -16 -15 -3 -8 -9
-15 -13 -14 -16 2 -53 -14 -53 -23 0 -5 -4 -6 -10 -3 -5 3 -19 -3 -31 -14 -12
-11 -26 -18 -31 -15 -4 3 -8 0 -8 -6 0 -6 -4 -8 -10 -5 -5 3 -10 2 -10 -3 0
-9 -37 -25 -52 -23 -5 1 -8 -6 -8 -15 0 -8 -4 -13 -10 -9 -5 3 -18 -2 -28 -12
-10 -10 -25 -19 -32 -21 -8 -2 -20 -11 -28 -20 -9 -11 -11 -12 -6 -2 4 8 -3 5
-15 -8 -12 -12 -26 -20 -32 -17 -5 4 -9 -1 -9 -10 0 -9 -4 -13 -10 -10 -5 3
-10 1 -10 -4 0 -6 -6 -11 -13 -11 -7 0 -19 -9 -27 -19 -7 -11 -17 -18 -22 -15
-4 3 -8 1 -8 -4 0 -5 -15 -17 -34 -27 -19 -11 -33 -23 -30 -27 3 -4 1 -8 -3
-8 -10 0 -55 -34 -95 -72 -15 -15 -28 -25 -28 -23 0 4 -131 -128 -285 -286
-14 -14 -25 -31 -25 -37 0 -5 -7 -13 -16 -16 -8 -3 -12 -11 -9 -16 4 -6 1 -9
-7 -8 -7 2 -12 -3 -10 -9 1 -7 -2 -13 -7 -13 -5 0 -13 -9 -16 -20 -4 -11 -10
-18 -14 -16 -4 3 -15 -11 -25 -29 -11 -19 -23 -32 -29 -28 -6 3 -7 1 -3 -5 3
-6 -2 -19 -13 -29 -10 -10 -22 -28 -25 -40 -4 -13 -12 -23 -17 -23 -5 0 -9 -6
-9 -13 0 -7 -9 -23 -20 -35 -12 -12 -18 -22 -15 -22 4 0 0 -7 -7 -15 -29 -32
-38 -45 -38 -52 0 -19 -12 -43 -22 -43 -5 0 -8 -5 -6 -12 3 -7 -3 -20 -11 -30
-9 -10 -16 -22 -17 -26 -3 -21 -38 -92 -46 -92 -4 0 -8 -5 -8 -11 0 -5 5 -7
12 -3 6 4 3 -5 -8 -19 -10 -15 -22 -27 -26 -27 -4 0 -5 -7 -1 -16 3 -9 1 -19
-6 -23 -6 -4 -14 -18 -16 -32 -3 -13 -9 -33 -14 -44 -12 -25 -41 -116 -41
-127 0 -4 879 -8 1954 -8 1851 0 1954 1 1961 18 4 9 9 31 12 47 3 17 10 33 16
37 9 6 9 8 0 8 -9 0 -9 8 -1 33 6 17 11 52 12 77 1 25 5 50 8 55 4 6 5 25 4
43 -1 17 0 32 3 32 8 0 6 239 -2 247 -4 3 -2 12 4 20 8 9 8 13 1 13 -7 0 -10
18 -8 45 1 25 -2 45 -7 45 -5 0 -7 9 -4 20 3 11 1 23 -5 26 -5 3 -7 12 -4 20
3 7 -1 28 -8 46 -8 18 -14 36 -14 41 -1 21 -16 74 -24 85 -6 6 -7 12 -3 12 4
0 2 6 -4 14 -6 8 -11 18 -9 22 1 5 -5 23 -15 40 -9 17 -13 34 -10 38 4 3 1 6
-6 6 -8 0 -11 8 -8 20 3 11 2 18 -2 16 -4 -3 -13 10 -21 27 -7 18 -16 34 -19
37 -4 3 -12 16 -19 30 -24 46 -39 71 -61 96 -11 13 -19 24 -16 24 5 0 -37 50
-75 87 -14 14 -24 29 -23 34 2 5 -3 9 -10 9 -8 0 -25 12 -39 28 -37 39 -97 92
-106 92 -4 0 -15 8 -24 18 -26 27 -46 42 -58 42 -5 0 -10 4 -10 8 0 9 -54 37
-56 30 -1 -1 -10 4 -20 13 -29 24 -121 69 -128 62 -3 -4 -6 -1 -6 5 0 7 -3 11
-7 10 -5 -1 -25 6 -47 15 -21 9 -44 17 -52 17 -7 0 -16 5 -19 10 -4 6 -10 8
-15 5 -5 -3 -11 -1 -14 4 -3 5 -15 7 -26 4 -11 -3 -20 0 -20 6 0 6 -13 11 -28
11 -16 0 -32 3 -35 7 -4 4 -26 8 -49 11 -24 2 -46 8 -49 14 -4 7 -9 6 -14 -1
-4 -8 -11 -9 -19 -2 -6 6 -21 10 -31 10 -43 -1 -123 8 -133 15 -7 4 -12 2 -12
-4 0 -6 -5 -8 -12 -4 -18 12 -58 11 -58 -1 0 -6 -3 -7 -8 0 -4 6 -14 10 -22
10 -8 0 -18 -4 -22 -10 -5 -6 -8 -6 -8 2 0 12 -17 12 -37 0 -6 -4 -15 -3 -18
3 -5 8 -11 8 -20 0 -10 -8 -14 -8 -17 2 -3 7 -7 8 -10 2z"/>
<path d="M813 2673 c-27 -5 -29 -24 -25 -265 l3 -178 40 0 40 0 -4 90 c-2 49
0 94 3 100 4 7 39 10 91 8 l84 -3 1 -95 c1 -52 2 -98 3 -102 0 -5 11 -6 24 -4
12 3 28 5 35 5 10 1 12 47 10 219 l-3 217 -38 3 -38 3 3 -87 2 -88 -89 -1 -90
-1 1 75 c1 105 -3 112 -53 104z"/>
<path d="M1670 2670 l-55 -5 0 -140 c0 -77 2 -176 5 -220 5 -86 2 -83 66 -76
8 1 10 28 8 86 -2 47 -1 85 4 86 4 0 26 2 50 3 l42 2 26 -85 c15 -47 28 -89
30 -93 7 -12 64 16 64 32 0 9 -11 49 -24 88 -14 40 -21 72 -16 72 5 0 18 17
29 39 34 66 13 163 -42 193 -29 15 -121 24 -187 18z m161 -88 c24 -31 24 -63
2 -91 -14 -17 -32 -23 -80 -26 l-63 -5 0 76 0 75 61 -2 c51 -2 63 -6 80 -27z"/>
<path d="M4015 2671 l-30 -6 0 -85 0 -85 -63 -6 c-81 -7 -113 -35 -122 -107
-8 -61 8 -109 44 -136 22 -17 46 -22 115 -24 l88 -4 6 34 c8 54 8 416 0 420
-4 3 -21 2 -38 -1z m-38 -253 c4 -7 8 -41 8 -75 l0 -63 -36 0 c-41 0 -77 25
-80 55 -3 41 1 64 17 79 18 19 80 21 91 4z"/>
<path d="M2965 2656 c-87 -38 -96 -176 -15 -217 19 -10 55 -20 80 -24 25 -3
55 -11 68 -17 47 -24 12 -108 -46 -108 -13 0 -41 9 -62 21 -35 20 -39 20 -63
4 -32 -20 -26 -38 20 -66 25 -16 52 -22 92 -22 104 -1 158 51 149 144 -6 61
-32 83 -113 99 -88 17 -95 20 -105 45 -25 65 49 109 135 80 34 -12 40 -12 51
3 21 28 16 42 -21 58 -43 17 -130 18 -170 0z"/>
<path d="M1180 2589 l0 -40 38 3 c35 3 37 5 40 41 l3 37 -40 0 -41 0 0 -41z"/>
<path d="M1964 2590 c0 -39 1 -40 36 -40 46 0 47 2 42 45 -4 33 -6 35 -41 35
-37 0 -38 0 -37 -40z"/>
<path d="M4112 2590 c2 -39 3 -40 40 -40 38 0 38 0 38 40 l0 40 -40 0 -41 0 3
-40z"/>
<path d="M3298 2605 c-3 -3 -3 -22 -1 -44 l4 -38 -47 -2 c-26 0 -49 -3 -52 -5
-2 -3 -1 -18 3 -34 6 -27 9 -29 49 -27 l43 3 0 -110 c1 -60 3 -111 5 -114 3
-2 19 -6 36 -8 l32 -3 0 117 0 117 48 -1 c46 -1 47 0 50 32 l3 32 -50 0 -51 0
0 45 c0 44 0 45 -33 45 -19 0 -36 -2 -39 -5z"/>
<path d="M1347 2532 c-17 -3 -18 -16 -16 -170 2 -92 5 -174 7 -183 3 -12 14
-17 37 -17 l34 0 3 57 c2 41 7 55 17 53 7 -1 38 4 68 13 62 18 93 56 93 117 0
86 -49 127 -157 131 -37 2 -76 1 -86 -1z m153 -82 c44 -44 10 -110 -58 -110
l-37 0 1 58 c1 31 2 60 3 65 3 16 72 6 91 -13z"/>
<path d="M2213 2529 c-45 -9 -82 -35 -95 -67 -9 -24 -13 -95 -9 -204 1 -37 2
-37 34 -31 17 3 34 7 36 9 2 2 3 47 3 99 -2 83 0 97 18 115 26 26 64 26 90 0
17 -17 20 -33 20 -120 l0 -100 38 0 39 0 -3 94 c-1 52 -5 108 -9 125 -12 54
-94 95 -162 80z"/>
<path d="M2494 2525 c-65 -27 -98 -126 -65 -188 26 -48 109 -74 169 -53 22 7
23 6 17 -16 -16 -55 -59 -67 -122 -34 -29 14 -31 14 -52 -8 -24 -26 -19 -33
34 -55 81 -32 162 -14 191 42 18 33 30 282 15 306 -12 19 -146 24 -187 6z
m116 -107 c0 -52 -13 -75 -46 -78 -31 -4 -42 -1 -58 16 -34 33 -9 105 39 114
55 11 65 3 65 -52z"/>
<path d="M4304 2511 c-39 -23 -59 -71 -58 -137 2 -100 64 -159 152 -142 75 13
113 64 114 148 0 59 -23 111 -61 133 -38 23 -108 22 -147 -2z m111 -66 c48
-47 23 -155 -35 -155 -34 0 -56 27 -63 76 -6 37 18 91 41 97 30 8 33 7 57 -18z"/>
<path d="M3500 2416 c0 -58 5 -116 11 -129 24 -52 112 -75 181 -46 24 10 33
10 36 1 5 -16 33 -15 56 3 18 13 18 16 4 32 -22 25 -30 72 -30 164 l0 79 -36
0 -37 0 -1 -100 c0 -55 -5 -105 -10 -110 -18 -18 -59 -21 -79 -6 -18 13 -20
26 -20 113 l-1 98 -37 3 -37 3 0 -105z"/>
<path d="M1187 2483 c-2 -5 -4 -62 -3 -128 l2 -120 37 -3 37 -3 0 130 0 131
-34 0 c-19 0 -37 -3 -39 -7z"/>
<path d="M1969 2475 c0 -8 -1 -31 -1 -50 0 -19 1 -71 1 -115 l1 -80 39 0 39 0
-3 113 c-2 61 -4 120 -4 130 -1 23 -71 25 -72 2z"/>
<path d="M4125 2482 c-6 -4 -10 -39 -9 -82 1 -41 3 -98 3 -125 l1 -51 38 4 38
4 -2 76 c-1 43 -3 101 -3 130 -1 50 -2 52 -28 52 -16 0 -33 -4 -38 -8z"/>
<path d="M759 2133 c0 -5 -3 -17 -5 -28 -2 -11 -6 -31 -9 -45 -2 -14 -4 -25
-5 -25 -3 0 -9 -38 -15 -85 -3 -25 -8 -61 -11 -80 -7 -47 -10 -330 -4 -330 3
0 6 -17 7 -38 2 -38 7 -70 17 -119 4 -15 9 -41 12 -57 3 -16 8 -34 12 -40 3
-6 8 -17 9 -23 2 -7 4 -19 6 -25 1 -7 6 -19 10 -25 5 -7 6 -13 2 -13 -3 0 1
-13 10 -30 8 -16 15 -32 15 -35 0 -3 14 -34 30 -70 16 -36 30 -67 30 -70 0 -3
4 -11 10 -18 6 -6 32 -44 58 -84 71 -108 131 -175 247 -277 51 -44 54 -46 65
-46 5 0 10 -4 10 -8 0 -5 12 -15 28 -23 15 -8 29 -16 32 -19 14 -14 70 -50 78
-50 5 0 43 -17 83 -37 41 -21 83 -40 94 -41 11 -2 21 -8 23 -12 2 -5 9 -7 17
-4 7 3 16 1 19 -5 4 -6 13 -8 21 -4 8 3 15 0 15 -7 0 -6 5 -8 10 -5 6 3 10 1
10 -6 0 -8 5 -7 17 2 11 10 14 10 9 2 -5 -9 -1 -13 11 -14 10 0 25 -2 33 -4 8
-2 26 -7 40 -10 53 -13 86 -19 118 -19 17 -1 32 -5 32 -9 0 -5 8 -6 18 -3 9 3
24 1 32 -4 9 -5 19 -5 27 2 7 6 13 6 13 2 0 -5 37 -9 83 -8 45 0 89 -3 98 -7
9 -5 19 -5 23 -1 4 3 24 7 44 8 57 2 184 13 212 19 14 2 41 7 60 9 45 6 90 15
112 22 10 3 30 8 45 11 37 7 57 11 63 13 3 1 8 2 13 1 4 0 7 3 7 9 0 5 7 7 15
4 8 -4 22 -1 30 6 8 7 15 10 15 7 0 -8 160 49 172 61 6 6 16 8 23 6 7 -3 16
-1 19 5 4 6 14 7 23 4 11 -4 14 -3 9 5 -4 8 0 12 11 12 10 0 27 6 38 14 11 7
23 14 28 15 4 0 23 7 42 15 20 9 38 15 42 15 3 -1 9 3 12 8 3 4 29 19 56 33
28 14 52 27 55 30 5 5 49 29 103 57 15 8 27 19 27 24 0 6 4 8 9 4 5 -3 21 6
35 20 14 14 26 23 26 20 0 -4 12 3 26 14 15 12 34 21 42 21 8 0 12 3 9 7 -4 3
10 18 31 31 20 14 47 36 59 49 12 13 27 23 32 23 6 0 25 16 44 35 19 19 37 32
40 28 4 -3 7 2 7 12 0 10 3 16 6 12 8 -7 234 216 234 231 0 6 9 14 20 17 11 4
18 10 15 15 -3 5 1 12 8 17 19 11 107 120 107 133 0 5 9 15 20 22 11 7 20 17
20 23 0 5 13 25 29 44 17 19 28 38 25 42 -2 4 3 10 12 13 9 4 14 9 11 12 -3 4
3 15 13 26 10 12 26 36 35 54 9 19 21 34 27 34 5 0 8 7 4 15 -3 8 -2 15 2 15
4 0 23 31 42 70 19 38 39 70 43 70 5 0 5 5 2 10 -3 6 -2 10 4 10 6 0 8 7 5 15
-4 8 -1 15 5 15 6 0 11 7 11 15 0 8 9 30 20 50 11 19 19 36 18 38 -4 4 34 101
46 116 9 12 8 13 -3 7 -8 -6 -7 0 4 18 l17 26 -1961 0 c-1078 0 -1961 -3
-1962 -7z"/>
</g>
</svg>
